<?xml version="1.0" encoding="utf-8"?>
<!-- Generator: Adobe Illustrator 21.1.0, SVG Export Plug-In . SVG Version: 6.00 Build 0)  -->
<svg version="1.1" id="Layer_1" xmlns="http://www.w3.org/2000/svg" xmlns:xlink="http://www.w3.org/1999/xlink" x="0px" y="0px"
	 viewBox="0 0 653 211" style="enable-background:new 0 0 653 211;" xml:space="preserve">
<style type="text/css">
	.st0{fill:#EFCF30;}
	.st1{fill:#2857EF;}
	.st2{fill:#575551;}
	.st3{fill:#F43B3B;}
	.st4{fill:#53C34B;}
	.st5{fill:#EBE7E8;}
	.st6{fill:#333232;}
	.st7{fill:#464F4A;}
	.st8{fill:none;stroke:#464F4A;stroke-width:8;stroke-linecap:round;stroke-linejoin:round;stroke-miterlimit:10;}
	.st9{fill:#FFFFFF;}
	.st10{fill:none;stroke:#FFFFFF;stroke-width:8;stroke-linecap:round;stroke-linejoin:round;stroke-miterlimit:10;}
	.st11{fill:none;stroke:#53C34B;stroke-width:8;stroke-miterlimit:10;}
</style>
<g>
	<g>
		<path class="st7" d="M230.6,116V67.4c0-0.7,0.3-1,1-1h7c0.7,0,1,0.3,1,1v15.5h20.5c0.7,0,1,0.3,1,1v5c0,0.7-0.3,1-1,1h-20.5v26
			c0,5,1.2,8.7,3.5,11.2c2.3,2.5,5.5,3.8,9.6,3.8c3.6,0,6.8-0.5,9.6-1.5l1.4-0.5c0.7-0.3,1,0,1,0.8v4.9c0,0.6-0.3,1-1,1.3
			c-3.4,1.3-7.4,2-12,2c-6.4,0-11.5-2-15.3-6.1C232.5,128,230.6,122.6,230.6,116z"/>
		<path class="st7" d="M277.8,135.6V83.9c0-0.7,0.3-1,1-1h5.5c0.7,0,1,0.3,1.1,1l0.9,8.5l0.8-1.1c0.4-0.5,1.2-1.3,2.5-2.5
			c1.3-1.2,2.7-2.3,4.3-3.2c1.6-0.9,3.7-1.7,6.3-2.5c2.6-0.8,5.3-1.2,8.2-1.2h4c0.7,0,1,0.3,1,1v6c0,0.7-0.3,1-1,1h-3
			c-3.3,0-6.3,0.4-9,1.2c-2.7,0.8-4.9,1.8-6.6,3c-3.3,2.4-5.4,4.6-6.4,6.5l-0.6,1.3v33.6c0,0.7-0.3,1-1,1h-7
			C278.1,136.6,277.8,136.2,277.8,135.6z"/>
		<path class="st7" d="M326.6,133.5c-3.8-3.1-5.7-7.2-5.7-12.5s1.9-9.4,5.8-12.5c3.9-3.1,9.3-4.6,16.2-4.6H360v-0.5
			c0-10-5-15-15.1-15c-3.1,0-5.8,0.8-8,2.3s-3.7,3.4-4.5,5.8c-0.2,0.7-0.6,1-1.2,1h-6.3c-0.8,0-1.1-0.3-1-1
			c0.5-4.5,2.7-8.2,6.5-10.9c3.8-2.7,8.6-4.1,14.6-4.1c7.8,0,13.7,1.9,17.9,5.8c4.1,3.8,6.2,9.3,6.2,16.3v32.1c0,0.7-0.3,1-1,1h-5.5
			c-0.7,0-1-0.3-1.1-1l-0.9-5.5c-0.4,0.6-1.3,1.5-2.6,2.6c-1.3,1.1-2.7,2-4,2.7c-3.5,1.9-7.5,2.8-11.9,2.8
			C335.5,138.1,330.4,136.5,326.6,133.5z M329.9,121c0,3.3,1.1,5.7,3.3,7.4c2.2,1.7,5.3,2.5,9.3,2.5c2.2,0,4.2-0.4,6.2-1.1
			c2-0.7,3.7-1.6,4.9-2.6c1.3-1,2.4-2,3.5-3.1c1-1,1.8-1.9,2.2-2.6c0.5-0.7,0.7-1.1,0.7-1.2V111H343
			C334.3,111,329.9,114.3,329.9,121z"/>
		<path class="st7" d="M388.1,135.6V83.9c0-0.7,0.3-1,1-1h5.5c0.7,0,1,0.3,1.1,1l0.9,5.5c0.4-0.6,1.2-1.4,2.5-2.5
			c1.3-1.1,2.6-2,3.8-2.7c3.2-1.8,6.9-2.7,11.2-2.7c6.8,0,12.3,2.1,16.6,6.3c4.3,4.2,6.5,9.9,6.5,17.3v30.6c0,0.7-0.3,1-1,1h-7.1
			c-0.7,0-1-0.3-1-1V105c0-5.3-1.4-9.4-4.1-12.2c-2.7-2.9-6.2-4.3-10.4-4.3c-1.9,0-3.8,0.4-5.7,1.1s-3.4,1.6-4.7,2.6
			c-1.2,1-2.3,2-3.3,3.1c-1.9,2.1-2.9,3.3-2.9,3.8v36.6c0,0.7-0.3,1-1,1h-7C388.4,136.6,388.1,136.2,388.1,135.6z"/>
		<path class="st7" d="M451.4,122.2c0-0.2,0-0.3,0-0.4c0-0.5,0.4-0.8,1.1-0.8h6.3c0.4,0,0.8,0.3,1.2,1c3.3,6,9.2,9,17.5,9
			c4.7,0,8.3-0.7,10.6-2.1c2.3-1.4,3.5-3.2,3.5-5.3c0-2.1-0.8-3.9-2.4-5.2s-4.3-2.5-8.2-3.4l-12.5-3c-10.7-2.6-16.1-7.8-16.1-15.5
			c0-4.4,2-8,6-10.8c4-2.8,9.4-4.2,16.4-4.2s12.6,1.4,16.8,4.3c4.3,2.9,7.1,6.7,8.4,11.5c0.2,0.8-0.1,1.2-1,1.2h-6.3
			c-0.4,0-0.8-0.3-1.2-1c-3.3-6-8.8-9-16.5-9c-4.5,0-7.9,0.7-10.1,2.2c-2.3,1.4-3.4,3.2-3.4,5.3s0.8,3.8,2.4,5.2
			c1.6,1.3,4.3,2.5,8.2,3.4l12.5,3c10.7,2.5,16.1,7.7,16.1,15.6c0,4.4-2,8-6.1,10.8c-4,2.8-9.7,4.2-17,4.2c-7.3,0-13.1-1.4-17.5-4.3
			C455.6,131,452.7,127.1,451.4,122.2z"/>
		<path class="st7" d="M514.5,68.4c0-1.3,0.7-2,2-2h6.5c0.8,0,1.3,0.2,1.6,0.5c0.3,0.3,0.4,0.8,0.4,1.5v6.5c0,0.8-0.1,1.3-0.4,1.6
			s-0.8,0.4-1.6,0.4h-6.5c-0.7,0-1.2-0.1-1.5-0.4s-0.5-0.8-0.5-1.6V68.4z M515.3,135.6V83.9c0-0.7,0.3-1,1-1h7c0.7,0,1,0.3,1,1v51.7
			c0,0.7-0.3,1-1,1h-7C515.6,136.6,515.3,136.2,515.3,135.6z"/>
		<path class="st7" d="M544.1,116V67.4c0-0.7,0.3-1,1-1h7c0.7,0,1,0.3,1,1v15.5h20.5c0.7,0,1,0.3,1,1v5c0,0.7-0.3,1-1,1h-20.5v26
			c0,5,1.2,8.7,3.5,11.2c2.3,2.5,5.5,3.8,9.6,3.8c3.6,0,6.8-0.5,9.6-1.5l1.4-0.5c0.7-0.3,1,0,1,0.8v4.9c0,0.6-0.3,1-1,1.3
			c-3.4,1.3-7.4,2-12,2c-6.4,0-11.5-2-15.3-6.1C546,128,544.1,122.6,544.1,116z"/>
		<path class="st7" d="M612.5,138.2c-7.3,0-13.3-2.5-18.1-7.4c-4.8-4.9-7.2-12-7.2-21.1c0-9.1,2.4-16.1,7.2-21
			c4.8-4.8,11-7.3,18.8-7.3c7.7,0,14,2.5,18.9,7.4c4.9,4.9,7.3,11.5,7.3,19.7v2.5c0,1.3-0.7,2-2,2h-41c0.6,6.1,2.4,10.6,5.4,13.6
			c3,3,6.9,4.5,11.6,4.5c7.4,0,12.7-3,16.1-9c0.4-0.7,0.8-1,1.2-1h6.3c0.8,0,1.2,0.4,1,1.2c-1.3,4.8-4.1,8.7-8.2,11.6
			C625.5,136.7,619.8,138.2,612.5,138.2z M596.4,106h34c-0.3-5.3-2.1-9.5-5.4-12.7c-3.3-3.2-7.2-4.8-11.8-4.8s-8.4,1.5-11.4,4.5
			C598.7,95.9,596.9,100.2,596.4,106z"/>
	</g>
	<g>
		<g>
			<path class="st4" d="M106.9,198.3c-51.8,0-93.9-42.1-93.9-93.9c0-51.8,42.1-93.9,93.9-93.9c51.8,0,93.9,42.1,93.9,93.9
				C200.8,156.2,158.7,198.3,106.9,198.3z M106.9,18.6C59.6,18.6,21,57.1,21,104.5c0,47.3,38.5,85.9,85.9,85.9
				c47.3,0,85.9-38.5,85.9-85.9C192.8,57.1,154.3,18.6,106.9,18.6z"/>
		</g>
		<g>
			<g>
				<path class="st7" d="M86.6,149.9c-2.2,0-4-1.8-4-4V89.8c0-2.2,1.8-4,4-4s4,1.8,4,4v56.1C90.6,148.1,88.8,149.9,86.6,149.9z"/>
			</g>
			<g>
				<path class="st7" d="M102.1,93.3c-1.4,0-2.7-0.7-3.5-2L86.4,70l-8.8,15.3h8.8c2.2,0,4,1.8,4,4s-1.8,4-4,4H70.6
					c-1.4,0-2.7-0.8-3.5-2c-0.7-1.2-0.7-2.8,0-4L82.9,60c0.7-1.2,2-2,3.5-2s2.7,0.8,3.5,2l15.8,27.3c1.1,1.9,0.4,4.4-1.5,5.5
					C103.5,93.2,102.8,93.3,102.1,93.3z"/>
			</g>
			<g>
				<g>
					<path class="st7" d="M127.2,113c-2.2,0-4-1.8-4-4V52.9c0-2.2,1.8-4,4-4s4,1.8,4,4V109C131.2,111.2,129.4,113,127.2,113z"/>
				</g>
				<g>
					<path class="st7" d="M127.4,140.8c-1.4,0-2.7-0.8-3.5-2l-15.8-27.3c-1.1-1.9-0.4-4.4,1.5-5.5c1.9-1.1,4.4-0.4,5.5,1.5
						l12.3,21.3l8.8-15.3h-8.8c-2.2,0-4-1.8-4-4s1.8-4,4-4h15.8c1.4,0,2.7,0.8,3.5,2c0.7,1.2,0.7,2.8,0,4l-15.8,27.3
						C130.2,140,128.9,140.8,127.4,140.8z"/>
				</g>
			</g>
		</g>
	</g>
</g>
</svg>
